<?xml version="1.0" encoding="UTF-8"?>
<svg width="98px" height="98px" viewBox="0 0 98 98" version="1.1" xmlns="http://www.w3.org/2000/svg" xmlns:xlink="http://www.w3.org/1999/xlink">
    <!-- Generator: Sketch 51.1 (57501) - http://www.bohemiancoding.com/sketch -->
    <title>支付宝</title>
    <desc>Created with Sketch.</desc>
    <defs></defs>
    <g id="我的" stroke="none" stroke-width="1" fill="none" fill-rule="evenodd">
        <g id="余额提现/内容为空" transform="translate(-30.000000, -174.000000)" fill="#1890FF" fill-rule="nonzero">
            <g id="支付宝账号" transform="translate(0.000000, 129.000000)">
                <path d="M128,112.087179 L128,63.8405003 C128,53.4402294 119.559771,45 109.153398,45 L48.8405003,45 C38.4402294,45 30,53.4402294 30,63.8405003 L30,124.153398 C30,134.553669 38.4341275,142.993898 48.8405003,142.993898 L109.153398,142.993898 C118.420445,142.993898 126.131924,136.293167 127.706016,127.479192 C122.708063,125.317131 101.049975,115.964221 89.7677514,110.580209 C81.1805297,120.98048 72.1889433,127.221819 58.6342785,127.221819 C45.0796136,127.221819 36.0330005,118.873446 37.1170816,108.656888 C37.8337368,101.949947 42.433536,90.9862239 62.4132531,92.8666127 C72.9421013,93.8527354 77.7625522,95.8188788 86.3497739,98.6547714 C88.5731809,94.5815945 90.4168489,90.0980597 91.8194314,85.3267514 L53.7402769,85.3267514 L53.7402769,81.5536608 L72.5807772,81.5536608 L72.5807772,74.7794883 L49.5997603,74.7794883 L49.5997603,70.6267677 L72.5807772,70.6267677 L72.5807772,60.8512955 C72.5807772,60.8512955 72.7891161,59.3200268 74.479472,59.3200268 L83.8996132,59.3200268 L83.8996132,70.6267677 L108.399586,70.6267677 L108.399586,74.7794883 L83.8996132,74.7794883 L83.8996132,81.5536608 L103.885541,81.5536608 C102.047975,89.0321755 99.2611163,95.9045243 95.7698061,101.907015 C101.576271,104.007947 127.999564,112.086852 127.999564,112.086852 L128,112.087179 Z M57.1336286,120.754053 C42.8133839,120.754053 40.5471541,111.713542 41.306632,107.934349 C42.0600079,104.173572 46.2066266,99.2674751 54.1691586,99.2674751 C63.3198322,99.2674751 71.5151109,101.607255 81.3519298,106.396979 C74.4429691,115.394558 65.9537059,120.753944 57.1336286,120.753944 L57.1336286,120.754053 Z" id="支付宝"></path>
            </g>
        </g>
    </g>
</svg>